<svg xmlns="http://www.w3.org/2000/svg" viewBox="0 0 250.64 230.4"><defs><style>.cls-1{fill:#39b54a;}.cls-2,.cls-4{fill:#fff;}.cls-3{fill:blue;}.cls-4{font-size:31.51px;font-family:BerlinSansFBDemi-Bold, Berlin Sans FB Demi;font-weight:700;}</style></defs><title>Asset 8</title><g id="Layer_2" data-name="Layer 2"><g id="Layer_7" data-name="Layer 7"><path class="cls-1" d="M237.09,5.24c-19.63-.65-39.26-.17-58.9-.82-12.76-.43-25.53.28-38.31.28-31.71,0-56.48,8.24-95,3C32.45,6,19.88,9.79,7.37,10.83,6.05,26.94,4.55,43.1,4.5,59.28c0,10.41,1.67,49,2.68,59.37,2.29,23.23-.31,60.69,1.62,107.18,36.75-2.76,68.12-3.16,104-2.46l129,2.53c1.46-70,3.6-111,4.4-140.14.07-2.58.08-70.29-1-72.57"/><path d="M237.09.74c-32.65-1-65.34-.76-98-.53C113.07.39,87.44,6,61.36,4.72,52.43,4.29,43.54,2.4,34.6,2.88c-9.15.5-18.12,2.59-27.23,3.45a4.65,4.65,0,0,0-4.5,4.5C1.46,28-.25,45.29,0,62.57.21,73.68.73,84.8,1.27,95.91c.49,9.87,1.37,19.71,1.93,29.57.75,13.18.5,26.41.42,39.59-.14,20.26-.13,40.51.68,60.76.1,2.29,2,4.68,4.5,4.5,37.62-2.79,75.22-3,112.92-2.28L241.8,230.4a4.57,4.57,0,0,0,4.5-4.5c1.28-60.92,4.84-121.76,4.28-182.7-.06-6.9-.13-13.81-.32-20.71-.08-3.15.39-7.47-.72-10.5-2-5.39-10.67-3.06-8.67,2.4.35,1-.06-.93,0-.15.06.6.1,1.2.14,1.81.13,2,.17,4.05.23,6.08.16,5.85.24,11.7.3,17.54q.19,19,.18,38.05c0,24-1.47,48-2.31,72q-1.32,38.07-2.12,76.15l4.5-4.5-120.08-2.35c-37.7-.74-75.3-.51-112.92,2.28l4.5,4.5c-1.29-31.93.33-63.88-.88-95.78C11.6,108.67,9.63,87.36,9.1,66c-.45-18.42,1.26-36.78,2.77-55.12l-4.5,4.5C15.24,14.59,23,13,30.85,12.18c8.25-.82,16.09.47,24.29,1.14a230.67,230.67,0,0,0,40.54-.72C123.86,9.91,151.82,8.16,180.16,9c19,.54,38,.17,56.93.76,5.79.18,5.79-8.82,0-9Z"/><path class="cls-2" d="M29.27,95.66c0,4.74-1.77,12.61,4.59,13.7,3.79.65,8.09.09,12,.1l13.81,0,51.28.14,12.82,0c3.07,0,7.1.75,10-.32a4.86,4.86,0,0,0,3.19-4.17c.37-2.6,0-7.66-1.13-10a5,5,0,0,0-4-2.79c-4.05-.68-8.93.34-13.05.51q-12.7.51-25.42.63Q64,93.8,34.7,92c-1.75-.1-2.81,1.47-3,3-.35,2.91-.24,6.25,2.12,8.34,2.85,2.51,7.51,1.59,11,1.59h66.46c5.51,0,11.37.55,16.86,0,2.92-.3,5.08-1.69,5.09-4.74a3.07,3.07,0,0,0-3-3c-30.68-2.49-61.58,5.31-92.09-.31-3.77-.7-5.39,5.09-1.59,5.78,31.1,5.74,62.42-2,93.68.53l-3-3V101l1.48-2.59c-2.38,1.67-9.67.47-12.47.47H45.76c-3.95,0-8.69,1.38-8.06-3.93l-3,3q26.37,1.59,52.79,1.55,13.2,0,26.4-.49,6.36-.23,12.71-.53l3.9-.21a9,9,0,0,0,.08,1.55c.12.35.26,5.12,1,3.83-.58,1-12.63,0-13.81,0l-11.84,0-27.61-.08-25.64-.07-13.8,0a26.42,26.42,0,0,0-3.7.06c-.68-.56,0-6.82.06-7.85,0-3.86-6-3.87-6,0Z"/><path class="cls-2" d="M122.27,128.66c0,4.74-1.77,12.61,4.59,13.7,3.79.65,8.09.09,12,.1l13.81,0,51.28.14,12.82,0c3.07,0,7.1.75,10-.32a4.86,4.86,0,0,0,3.19-4.17c.37-2.6,0-7.66-1.13-10a5,5,0,0,0-4-2.79c-4.05-.68-8.93.34-13.05.51q-12.71.51-25.42.63Q157,126.8,127.7,125c-1.75-.1-2.81,1.47-3,3-.35,2.91-.24,6.25,2.12,8.34,2.85,2.51,7.51,1.59,11,1.59h66.46c5.51,0,11.37.55,16.86,0,2.92-.3,5.08-1.69,5.09-4.74a3.07,3.07,0,0,0-3-3c-30.68-2.49-61.58,5.31-92.09-.31-3.77-.7-5.39,5.09-1.59,5.78,31.1,5.74,62.42-2,93.68.53l-3-3V134l1.48-2.59c-2.38,1.67-9.67.47-12.47.47H138.76c-3.95,0-8.69,1.38-8.06-3.93l-3,3q26.37,1.59,52.79,1.55,13.2,0,26.4-.49,6.36-.23,12.71-.53l3.9-.21a9,9,0,0,0,.08,1.55c.12.35.26,5.12,1,3.83-.58,1-12.63,0-13.81,0l-11.84,0-27.61-.08-25.64-.07-13.8,0a26.42,26.42,0,0,0-3.7.06c-.68-.56,0-6.82.06-7.85,0-3.86-6-3.87-6,0Z"/><path class="cls-2" d="M154.66,99.36a147.15,147.15,0,0,1,30.69-.6c10.18.89,20,2.83,30.18.9l-5.7-4.34c0,1.31,0,2.61,0,3.92-.14,2.21-.11,2.6.07,1.15l2.69-2.06c-4.65,1.08-10.56.11-15.34.09-5.11,0-10.22,0-15.34.13-9.75.28-19.65,2.25-29.39,1.49l4.34,3.3c-.85,1.45-.4,1.84,1.37,1.19l3.84,0,5.75-.06,13.44-.15c5.78-.07,5.8-9.07,0-9-8.1.09-16.44-.39-24.51.3-5.55.48-10,4.25-8.57,10.16a4.62,4.62,0,0,0,4.34,3.3c6.65.52,13.21-.55,19.83-1,7-.5,14-.6,21.07-.6,6.45,0,14.05,1.17,20.38-.13,5.84-1.19,5.07-7.27,5-12,0-3.11-2.85-4.88-5.69-4.34-9.83,1.87-19.83-.64-29.64-1.38a147.88,147.88,0,0,0-28.84.76c-5.67.69-5.74,9.7,0,9Z"/><path class="cls-2" d="M93.49,128c.28,2.2,2.18,8.58.84,10.61l2.59-1.49c.59,0-2.24-.66-2.8-.71a42.56,42.56,0,0,0-7.57.23c-5.69.45-11.32,1.42-17,1.94a87.42,87.42,0,0,1-15.85-.12c-4.93-.44-11.07-.13-15.76-1.73l2.09,2.1c-.18-.56-.65-8.85-.84-8.87l-1.32,1.75,1.93.11c1.41.45,3.37.2,4.84.27q9.18.47,18.39.65c11.25.22,23.2,1.06,34.31-1,1.7-.32,2.35-2.21,2.1-3.69-.59-3.43-4.49-3.63-6.74-1.62-2.72,2.44-2.93,4.48-7.22,4.72-3.56.19-7.13.33-10.69.42q-10.7.27-21.4-.08c-4.83-.15-12.35-2.2-16.59.72a3.07,3.07,0,0,0-.61,4.71c2.39,3.08,5.92,4,9.66,4.2,5.93.39,12,0,17.91,0,10,0,21.83,1.75,31.13-2.78,3.47-1.69.43-6.87-3-5.18-7.48,3.65-18,2-26.12,2l-13.88,0c-3.78,0-8.83.85-11.42-2.51l-.61,4.72c2-1.38,6.42-.19,8.7-.09q3.88.18,7.77.28,8.76.21,17.52,0c5.2-.11,10.77.11,15.91-.74a7.52,7.52,0,0,0,3.74-1.54c1.47-1.19,2.32-3.89,4-4.72h-3l-.74-.95,2.1-3.69c-8.1,1.51-16.77,1-25,.9s-16.15-.27-24.21-.65c-3.85-.19-12.3-2.54-13.33,3.11-.46,2.51.13,7.45.7,9.95.45,2,1.19,2.94,3.15,3.53,2.91.87,6.45.67,9.47,1,3.91.39,7.82.84,11.74,1,7.94.43,15.67-.79,23.53-1.7,3.6-.41,8.28-1.4,11.86-.77,1.61.29,3,1.34,4.74.37,4.28-2.39,1.49-11.29,1.06-14.71-.49-3.78-6.49-3.83-6,0Z"/><path class="cls-3" d="M72.08,182.66l75.22-.37c5.94,0,11.88-.09,17.82-.09a56.08,56.08,0,0,1,7.67.24,57.1,57.1,0,0,1,6.42,2.3c-1.38,1.07-1.71-5.46-1.55-1.68.05,1.28.14,2.54.29,3.8.07.56,1.07,7.94,1.66,7.9s1.81-6.07,2.6-5.58c-.07,0-1.8.39-2.07.43-3.7.48-7.66.1-11.38,0l-19.83-.26-37.69-.49-17.85-.23c-6.26-.08-12.84.42-19.07-.3-1.09-.13-5-1.83-3.29,1.19.25.43,2.22.13,3.27.18,6,.31,11.93,1.5,17.86,2.13a503.59,503.59,0,0,0,83.19,1.92c9.59-.56,9.66-15.57,0-15a503.47,503.47,0,0,1-91.85-2.92c-5.77-.72-11.63-2-17.35-.21a13.19,13.19,0,0,0-9.54,13.52c1.22,16.87,23.28,14.32,34.8,14.47l45.62.59c13.91.18,28.09,1.19,42,.43,4.35-.24,9.31-.83,12.56-4.06,4.72-4.69,2-9.44,1.24-14.88-.51-3.83-.06-7.3-2.48-10.64-3.4-4.66-9.71-6.57-15.15-7.34-7.86-1.12-16-.53-23.93-.49l-25.73.13-53.45.26c-9.65.05-9.67,15.05,0,15Z"/><path class="cls-2" d="M43.39,61.27a9.26,9.26,0,0,1-2.83,6.8,11.21,11.21,0,0,1-6,3.18.94.94,0,0,1-.22,0c-.25,0-.81-.91-1.68-2.74a13.21,13.21,0,0,1-1.31-3.35.27.27,0,0,1,.25-.27,15.13,15.13,0,0,0,3.17-1.1,3.28,3.28,0,0,0,1.72-3A5,5,0,0,0,35.34,58c-1.3-1.77-2-2.75-2.12-2.95a9,9,0,0,1-1.14-4.49,7.45,7.45,0,0,1,2.8-5.94,11.52,11.52,0,0,1,5.6-2.54l.28,0c.17,0,.3.16.4.47q.42,1.43,2,5.16a.59.59,0,0,1,.05.19c0,.23-.1.34-.3.34a2.77,2.77,0,0,1-.45-.06,2.79,2.79,0,0,0-.48-.06,3.47,3.47,0,0,0-2.08.64,2.4,2.4,0,0,0-1.07,2.07A5.47,5.47,0,0,0,40,53.71L42.22,57A8.85,8.85,0,0,1,43.39,61.27Z"/><path class="cls-2" d="M62.23,48.83q0,.39-.36.39c-.42,0-2.08-.1-5-.29-.06,3.29-.1,5.59-.1,6.89,0,1.54.06,3.85.16,6.94s.16,5.39.16,6.93c0,.25,0,.4-.15.47a1.55,1.55,0,0,1-.46.1,21.16,21.16,0,0,1-2.91.15,20,20,0,0,1-3-.15.56.56,0,0,1-.47-.61c0-1.53.06-3.84.17-6.91s.16-5.38.16-6.92c0-1,0-3.28-.13-6.79a47.32,47.32,0,0,1-5.27.39c-.18,0-.27-.07-.27-.2a14.15,14.15,0,0,1,.23-1.5c.18-.91.28-1.47.3-1.66,0-.61.07-1.23.12-1.84.08-1,.21-1.46.39-1.46l.24,0a57,57,0,0,0,7.91.41c1,0,2.82-.13,5.49-.37l2.17-.2a.83.83,0,0,1,.38.05.88.88,0,0,1,.06.38c0,.35,0,.84,0,1.46s0,1.18,0,1.47a14,14,0,0,0,.1,1.44C62.19,48.05,62.23,48.52,62.23,48.83Z"/><path class="cls-2" d="M85.8,69.77a.51.51,0,0,1-.41.49,16.9,16.9,0,0,1-3.08.15,18.36,18.36,0,0,1-3-.15,1,1,0,0,1-.71-.88c-.37-1.88-.67-2.88-.88-3a30.65,30.65,0,0,0-4.43-.14,10.84,10.84,0,0,0-3,.18,6.09,6.09,0,0,0-.63,2.09c-.2,1.08-.46,1.67-.76,1.76a24.4,24.4,0,0,1-3.76.15c-1.69,0-2.53-.19-2.53-.56s1.24-4.5,3.73-12.48q4.05-13,4.4-14.24c.13-.5.29-.74.46-.74s.76,0,1.38.09a13.38,13.38,0,0,0,1.4.1c.3,0,.73,0,1.31-.07s1-.07,1.3-.07.4.22.58.65q.81,2.05,4.72,14.06T85.8,69.77ZM74.08,52c-.23.57-.62,1.81-1.17,3.73a23,23,0,0,0-.9,3.57c0,.23.34.37,1,.39.34,0,.9,0,1.68,0s1.13-.1,1.21-.31a1,1,0,0,0,0-.28,21.53,21.53,0,0,0-.76-3.55A29.67,29.67,0,0,0,74.08,52Z"/><path class="cls-2" d="M107.19,70.06c0,.09-.12.16-.34.2a24.26,24.26,0,0,1-3.15.11,23.67,23.67,0,0,1-2.94-.11,1.4,1.4,0,0,1-.42-.1,1,1,0,0,1-.23-.39c-.16-.51-.41-1.26-.73-2.27q-.64-1.95-2-5.76A1.42,1.42,0,0,0,96,60.9c.33,0-.24,0-1.71,0-.16,0-.24.33-.24,1,0,.88.06,2.2.2,4s.21,3.08.21,4q0,.33-.15.39l-.46,0c-.65,0-1.67.07-3,.07A18.82,18.82,0,0,1,88,70.26a.57.57,0,0,1-.48-.61q0-2.15.18-6.48t.17-6.51q0-8.25-.31-12.89l0-.27c0-.22.16-.37.52-.45s2-.16,5-.23c2-.06,3.66-.08,4.88-.08a9.17,9.17,0,0,1,6.14,2,8.06,8.06,0,0,1,2.7,6.54,12.1,12.1,0,0,1-.7,4.55,8.72,8.72,0,0,1-2.56,3.3.86.86,0,0,0-.38.59l2,4.9A40.09,40.09,0,0,1,107.19,70.06Zm-7-17.52a3.74,3.74,0,0,0-1.32-3.3,5.74,5.74,0,0,0-3.21-.7c-1,0-1.6.19-1.66.56s-.1,1.72-.1,3.83c0,.3,0,.74,0,1.33s0,1,0,1.31c0,.06.18.13.53.19a12,12,0,0,0,2.11.18C99,55.94,100.24,54.81,100.24,52.54Z"/><path class="cls-2" d="M125.15,48.83q0,.39-.36.39c-.42,0-2.08-.1-5-.29-.06,3.29-.1,5.59-.1,6.89,0,1.54.06,3.85.16,6.94s.16,5.39.16,6.93c0,.25,0,.4-.15.47a1.55,1.55,0,0,1-.46.1,21.16,21.16,0,0,1-2.91.15,20,20,0,0,1-3-.15.56.56,0,0,1-.47-.61c0-1.53.06-3.84.17-6.91s.16-5.38.16-6.92c0-1,0-3.28-.13-6.79a47.32,47.32,0,0,1-5.27.39c-.18,0-.27-.07-.27-.2a14.15,14.15,0,0,1,.23-1.5c.18-.91.28-1.47.3-1.66,0-.61.07-1.23.12-1.84.08-1,.21-1.46.39-1.46l.24,0a57,57,0,0,0,7.91.41c1,0,2.82-.13,5.49-.37l2.17-.2a.83.83,0,0,1,.38.05.88.88,0,0,1,.06.38c0,.35,0,.84,0,1.46s0,1.18,0,1.47a14,14,0,0,0,.1,1.44C125.11,48.05,125.15,48.52,125.15,48.83Z"/><path class="cls-2" d="M157.56,69.65q0,.41-.15.51a1.17,1.17,0,0,1-.46.1,26.07,26.07,0,0,1-2.84.11,20.74,20.74,0,0,1-3.05-.11.52.52,0,0,1-.46-.53c0-1,.05-2.58.13-4.64s.12-3.61.12-4.64c0-.51-.12-.8-.36-.88a27.22,27.22,0,0,0-4-.15,27.67,27.67,0,0,0-4,.15c-.25.07-.37.36-.37.88,0,1,0,2.54.08,4.56s.09,3.55.09,4.56q0,.59-.45.69a22.45,22.45,0,0,1-3.11.11,20.46,20.46,0,0,1-2.84-.11.56.56,0,0,1-.48-.61c0-1.4.06-3.53.18-6.37s.17-5,.17-6.38-.06-3.78-.17-6.81-.16-5.3-.16-6.81c0-.28.11-.43.34-.43s.86,0,1.55.06,1.2.06,1.55.06.88,0,1.59-.06,1.24-.06,1.6-.06c.18,0,.28.12.28.36,0,1-.06,2.43-.19,4.38s-.18,3.41-.18,4.39c0,.45.11.72.32.8a27.92,27.92,0,0,0,4.23.15,28.36,28.36,0,0,0,4.1-.15c.26-.08.39-.35.39-.8,0-.94,0-2.36-.11-4.25s-.12-3.32-.12-4.27c0-.4.14-.61.42-.61s.8,0,1.46.06,1.15.06,1.48.06.8,0,1.46-.06,1.15-.06,1.48-.06a.42.42,0,0,1,.48.47q0,2.25-.16,6.78c-.1,3-.16,5.29-.16,6.8s.06,3.55.18,6.38S157.56,68.25,157.56,69.65Z"/><path class="cls-2" d="M177.53,64.18c0,.56-.1,1.59-.28,3.09a13.9,13.9,0,0,1-.53,2.91.61.61,0,0,1-.55.37,3.26,3.26,0,0,1-.49-.06,69.58,69.58,0,0,0-7.05-.19l-3.78,0c-1.68,0-2.93,0-3.77,0q-.54,0-.54-.57c0-1.46.06-3.65.2-6.57S161,58,161,56.55s-.07-4.26-.2-8.3c0-1-.09-2.6-.18-4.67l0-.28a.37.37,0,0,1,.42-.45c.81,0,2,0,3.67.08s2.87.08,3.68.08,2,0,3.64-.08,2.83-.08,3.63-.08a.87.87,0,0,1,1,.77c.06.3.15,1.2.26,2.72s.17,2.44.17,2.76-.11.41-.33.41h-.34q-4.41-.44-7.9-.43-.88,0-1.08.48a7.82,7.82,0,0,0-.08,1.51,3.19,3.19,0,0,0,.33,1.76,1.3,1.3,0,0,0,1.07.37l.65,0,.79,0c1.39,0,2.8-.05,4.22-.14l.91-.1a6.87,6.87,0,0,1,.89-.07c.26,0,.39.15.39.44,0-.27-.09.73-.29,3-.09,1-.14,2.09-.14,3.13,0,.26-.16.39-.47.39l-1.49-.2c-.63-.07-2.06-.11-4.3-.11h-1.75c-.45,0-.72.13-.79.39,0,.06,0,.47,0,1.21a6.75,6.75,0,0,0,.16,1.91c.19.5.9.79,2.12.88H172c.59,0,1.45-.06,2.61-.18a24.9,24.9,0,0,1,2.58-.19C177.4,63.48,177.53,63.71,177.53,64.18Z"/><path class="cls-2" d="M199.43,70.06c0,.09-.12.16-.34.2a24.26,24.26,0,0,1-3.15.11,23.67,23.67,0,0,1-2.94-.11,1.4,1.4,0,0,1-.42-.1,1,1,0,0,1-.23-.39c-.16-.51-.41-1.26-.73-2.27q-.65-1.95-2-5.76a1.42,1.42,0,0,0-1.37-.84c.33,0-.24,0-1.71,0-.16,0-.24.33-.24,1,0,.88.06,2.2.2,4s.21,3.08.21,4q0,.33-.15.39l-.46,0c-.65,0-1.67.07-3,.07a18.82,18.82,0,0,1-2.85-.11.57.57,0,0,1-.48-.61q0-2.15.18-6.48t.17-6.51q0-8.25-.31-12.89l0-.27c0-.22.16-.37.52-.45s2-.16,5.05-.23c2-.06,3.66-.08,4.88-.08a9.17,9.17,0,0,1,6.14,2,8.06,8.06,0,0,1,2.7,6.54,12.1,12.1,0,0,1-.7,4.55,8.72,8.72,0,0,1-2.56,3.3.86.86,0,0,0-.38.59l2,4.9A40.09,40.09,0,0,1,199.43,70.06Zm-7-17.52a3.74,3.74,0,0,0-1.32-3.3,5.74,5.74,0,0,0-3.21-.7c-1,0-1.6.19-1.66.56s-.1,1.72-.1,3.83c0,.3,0,.74,0,1.33s0,1,0,1.31c0,.06.18.13.53.19a12,12,0,0,0,2.11.18C191.28,55.94,192.48,54.81,192.48,52.54Z"/><path class="cls-2" d="M218.22,64.18c0,.56-.1,1.59-.28,3.09a13.9,13.9,0,0,1-.53,2.91.61.61,0,0,1-.55.37,3.26,3.26,0,0,1-.49-.06,69.58,69.58,0,0,0-7.05-.19l-3.78,0c-1.68,0-2.93,0-3.77,0q-.54,0-.54-.57,0-2.19.2-6.57c.14-2.92.21-5.12.21-6.57s-.07-4.26-.2-8.3c0-1-.09-2.6-.18-4.67l0-.28a.37.37,0,0,1,.42-.45c.81,0,2,0,3.67.08S208.2,43,209,43s2,0,3.64-.08,2.83-.08,3.63-.08a.87.87,0,0,1,1,.77c.06.3.15,1.2.26,2.72s.17,2.44.17,2.76-.11.41-.33.41H217c-2.93-.29-5.57-.43-7.9-.43q-.88,0-1.08.48a7.82,7.82,0,0,0-.08,1.51,3.19,3.19,0,0,0,.33,1.76,1.31,1.31,0,0,0,1.07.37l.65,0,.79,0c1.39,0,2.8-.05,4.22-.14l.91-.1a6.87,6.87,0,0,1,.89-.07c.26,0,.4.15.4.44,0-.27-.1.73-.3,3-.09,1-.13,2.09-.13,3.13q0,.39-.48.39l-1.49-.2c-.63-.07-2.06-.11-4.3-.11h-1.75c-.45,0-.72.13-.79.39,0,.06,0,.47,0,1.21a6.26,6.26,0,0,0,.17,1.91c.18.5.89.79,2.11.88h2.41c.59,0,1.45-.06,2.61-.18a24.9,24.9,0,0,1,2.58-.19C218.1,63.48,218.22,63.71,218.22,64.18Z"/><text class="cls-4" transform="translate(105.6 195.99) scale(1.21 1)">Go</text></g></g></svg>