<svg xmlns="http://www.w3.org/2000/svg" viewBox="0 0 201.44 242.87"><defs><style>.cls-1{fill:#0071bc;}.cls-2,.cls-5{fill:#fff;}.cls-3{fill:#ff5e33;}.cls-4{fill:#b3b3b3;stroke-width:6px;}.cls-4,.cls-5{stroke:#000;stroke-miterlimit:10;}.cls-5{stroke-width:2px;}</style></defs><title>Asset 5</title><g id="Layer_2" data-name="Layer 2"><g id="Layer_12" data-name="Layer 12"><path class="cls-1" d="M3.9,29.58c-.66,16.85-.32,42.32-1,59.17-.43,11,.14,21.92.09,32.88-.12,27.21.07,54.39,2.25,81.54.87,10.73-.27,21.47.6,32.2,14.17,1.2,30.37,3.42,44.61,3.52,9.15.07,16.55-.78,27.29-.15,40.85,2.37,79.73.55,120.62-.93.64-30.93-3.9-61.28-3.13-92.05.91-36.9,1.83-82.44,2.75-119.34-61.61-1.54-123.22.37-184.82-1.16-2.27-.06-4.66-.1-6.67.82S3.1,29.2,4.1,31"/><path d="M.9,29.58C-.26,60.9.11,92.29,0,123.62c-.06,18.57,0,37.15.8,55.7.4,9.23,1.28,18.42,1.68,27.64.42,9.47-.29,18.94.37,28.41a3.09,3.09,0,0,0,3,3c15.38,1.34,30.75,3.56,46.21,3.53,6.77,0,13.52-.5,20.29-.37,8.35.16,16.68.81,25,1.05,33.68.94,67.35-.55,101-1.77a3,3,0,0,0,3-3c.33-19-1.18-37.89-2.27-56.83-1-17.85-.84-35.59-.43-53.46.79-33.7,1.48-67.4,2.32-101.1a3,3,0,0,0-3-3c-36.1-.88-72.21-.62-108.31-.54-17.89,0-35.78,0-53.66-.2-8.63-.11-17.69-1.14-26.28-.38-5,.45-10.23,3.8-8.55,9.46,1.1,3.69,6.89,2.12,5.79-1.6-.8-2.67,11-1.79,12.15-1.77q6,.13,11.92.22,11.93.18,23.85.24c15.9.09,31.8,0,47.7,0,31.79-.1,63.6-.2,95.39.57l-3-3c-.84,33.7-1.53,67.4-2.32,101.1-.41,17.87-.59,35.61.43,53.46,1.09,18.94,2.6,37.85,2.27,56.83l3-3c-33.64,1.22-67.32,2.72-101,1.77-8.34-.24-16.68-.9-25-1.05-6.77-.12-13.52.35-20.29.37-15.46,0-30.83-2.19-46.21-3.53l3,3c-.64-9.15,0-18.3-.33-27.46-.34-9.54-1.31-19-1.72-28.59C6,160.77,6,142.19,6,123.62c.09-31.33-.28-62.72.88-94,.14-3.86-5.86-3.86-6,0Z"/><path class="cls-2" d="M15,43.87c-.58,15.09-.28,30.18-.86,45.27-.37,9.82.13,19.64.09,29.46-.11,24.38.05,48.73,2,73.05l2.28,28.85c12.48,1.07,25,2.28,37.52,2.38,8.06.06,38-3.41,46-4.16,18-1.67,47,2.77,83,1.45-2-28.26-2.19-52.39-1.52-79.95q1.22-49.59,2.42-99.18L23.2,36.9a13.22,13.22,0,0,0-5.86.74c-1.77.82-3,2.8-2.13,4.37"/><path d="M12,43.87c-1.06,29.5-.85,59.05-.8,88.56s2,58.7,4.29,88.07a3.1,3.1,0,0,0,3,3c15.43,1.33,31,3.13,46.45,1.9,11.27-.89,22.49-2.19,33.73-3.35,11.43-1.17,22.87-.54,34.32.06,17.34.91,34.65,1.65,52,1.06a3,3,0,0,0,3-3c-4.14-59.56-.55-119.53.9-179.13a3,3,0,0,0-3-3L89.68,35.59,42.06,34.38C34.84,34.2,27,33.07,19.79,34c-4.78.61-8.67,3.68-7.47,8.81C13.19,46.57,19,45,18.1,41.22c-.42-1.81,19.1-1,21-.92l19.85.51,42.66,1.08L185.93,44l-3-3c-1.45,59.6-5,119.57-.9,179.13l3-3c-17.36.59-34.67-.15-52-1.06-11.45-.6-22.89-1.23-34.32-.06-11.24,1.16-22.46,2.46-33.73,3.35-15.48,1.23-31-.57-46.45-1.9l3,3c-2.32-29.37-4.23-58.59-4.29-88.07S17,73.37,18,43.87c.13-3.87-5.87-3.86-6,0Z"/><path d="M85.82,180.84c0,5.24-1.82,12.91,5.07,13.78,4.42.56,9.23,0,13.69,0l13.69,0,27.38.1,13.69.05c2.69,0,6.74.88,9-1,2.92-2.43,2.18-12.61-.35-15-2.22-2.14-5.78-1.13-8.51-1q-6.78.42-13.57.64a502,502,0,0,1-55.26-1.27c-1.72-.14-2.86,1.49-3,3-.59,6.49,1.51,9.77,8.13,9.93,9.47.22,19,0,28.44,0h27.46c4.34,0,15.37,2.34,15.39-4.74a3.08,3.08,0,0,0-3-3c-23.54-2.43-47.31,5.21-70.62-.31-3.76-.89-5.36,4.9-1.6,5.79,23.94,5.66,48.1-2,72.22.52l-3-3c0-2.17-5.79-1.26-7.43-1.26H99.74a16.58,16.58,0,0,1-3.92,0c-2.85-.81-2.32-1.79-2.13-3.93l-3,3c13.87,1.07,27.77,1.61,41.68,1.53q10.19,0,20.37-.53,2.89-.13,5.81-.31c1.3-.07,3.74-.79,4.84-.31,1.21-.3,1.3-.08.28.68l.11,1.6c0-.3.43,5.42,1.43,3-.22.53-8.83,0-9.78,0l-10.76,0-20.53-.08-21.51-.07c-3.26,0-6.52-.06-9.78,0-2.1-.05-2.61,0-1.52,0,1,.23,1.1-.41.46-1.92a50.31,50.31,0,0,0,0-5.89c0-3.86-6-3.86-6,0Z"/><path d="M88.13,111.32l40.76-.57,19.88-.27,10.94-.16c1.3,0,2.68.09,4,0q3.19.45,1.37-.37c-.79-.68-1-.36-.58.95-.47,1.59.39,2.59-1.22,3.79-1.45,1.08-3.11.69-4.89.66-3.26-.06-6.53-.19-9.79-.35-6.53-.32-13.05-.79-19.58-1.17-13.69-.81-27.39-1.2-41,.52l2.59,1.48c-.62-1.39,9.43-1.12,10.38-1.09l8.88.22,18.76.48q18,.45,36,.9c3.4.08,4.06-5,.8-5.89L157,108.12c-3.73-1-5.32,4.78-1.6,5.79l8.38,2.27.8-5.89q-25.38-.6-50.77-1.28l-12.83-.32c-3.49-.09-7.47-.78-10.88,0-4.78,1.15-6.6,5.77-4.68,10.08A2.88,2.88,0,0,0,88,120.3c16.92-2.13,33.87-1,50.82.09,7.91.49,16.72,1.91,24.6.92,4.73-.59,6.63-4,7-8.47.35-4.14-.06-8-4.73-8.6-4.1-.52-8.79.12-12.92.18l-12.92.18-51.7.72c-3.85.06-3.86,6.06,0,6Z"/><path d="M84.06,143.74c.13,4.65-1.39,12.89,4.63,14.31,2.93.69,6.64-.38,9.63-.62q6.87-.57,13.75-1,26.52-1.51,53.1-.51a3,3,0,0,0,3-3c.18-4.46,1.6-11-4.39-11.75-7.71-1-16.3.18-24.08.29l-23.61.34-11.8.16c-1.36,0-11.87,1.14-12.65.14l-4.71,3.63c1.61,1.51,1,4.76,2.67,6.54,2,2.1,5,2.1,7.64,2.26a75.06,75.06,0,0,0,25.11-2.9c3.19-.9,2.66-6-.8-5.89l-26.47,1,.79,5.89c10.59-2.26,22-1.26,32.81-1.31l32.77-.17c3.86,0,3.87-6,0-6l-34.7.18c-10.75,0-21.9-.74-32.47,1.52-3.3.71-2.58,6,.8,5.89l26.47-1-.79-5.89a70.73,70.73,0,0,1-20.8,2.8c-2.8-.06-5.49.56-6.43-2.28-.63-1.92-.8-3.42-2.36-4.88-2.35-2.22-6.87.82-4.71,3.63,3.34,4.35,9,3,13.89,2.9l23.61-.33,23.61-.34,10.82-.15,3,0c2.11.12,2.61.07,1.52-.13-.25-.43-.66,5.13-.69,5.89l3-3q-21.63-.78-43.27,0-10.83.44-21.62,1.27c-1.45.11-8.87,1.7-9.82.85s-.37-7.05-.4-8.38c-.11-3.85-6.11-3.86-6,0Z"/><path class="cls-3" d="M44.64,141a48.71,48.71,0,0,0-9.12,7.11,3.61,3.61,0,0,0-1,1.48c-.33,1.16.5,2.3,1.27,3.23L47.68,167a3.64,3.64,0,0,0,2.4,1.64,3.69,3.69,0,0,0,1.7-.48c3.41-1.61,6.91-3.29,9.41-6.11,1.23-1.39,2.17-3,3.4-4.39,3.48-3.95,9.14-6,11.33-10.77a39.65,39.65,0,0,1-10.36-10.62A73.56,73.56,0,0,0,51,151.38q-3.49-5-6.7-10.18"/><path d="M43.88,139.68c-3.44,2.16-12.28,6.69-10.68,11.79.9,2.9,4.36,5.79,6.26,8.06,2.44,2.9,5.25,7.9,8.53,9.84,4.64,2.74,12.35-4,15.14-7.36a50.45,50.45,0,0,1,8.37-8.15,19.58,19.58,0,0,0,5.72-6.23,1.55,1.55,0,0,0-.54-2,41.47,41.47,0,0,1-9.82-10.09,1.54,1.54,0,0,0-2.36-.3,81,81,0,0,0-14.79,15.43H52.3c-2.33-3.34-4.56-6.72-6.71-10.18-1-1.63-3.61-.13-2.59,1.52q3.22,5.17,6.71,10.18a1.53,1.53,0,0,0,2.59,0,77.73,77.73,0,0,1,14.33-14.83l-2.36-.3a46,46,0,0,0,10.9,11.16l-.54-2.06c-2.22,4.12-6.38,6-9.7,9.08-3.78,3.48-5.93,8.14-11,10.23-1.43.59-3.69,1.34-5.2.5-1-.54-2.21-2.63-3-3.55L40.39,156c-2.3-2.74-5.43-4.76-2.61-8,2-2.34,5-4.08,7.62-5.72,1.63-1,.13-3.62-1.52-2.59Z"/><path class="cls-3" d="M44.64,104a48.71,48.71,0,0,0-9.12,7.11,3.61,3.61,0,0,0-1,1.48c-.33,1.16.5,2.3,1.27,3.23L47.68,130a3.64,3.64,0,0,0,2.4,1.64,3.69,3.69,0,0,0,1.7-.48c3.41-1.61,6.91-3.29,9.41-6.11,1.23-1.39,2.17-3,3.4-4.39,3.48-4,9.14-6,11.33-10.77A39.65,39.65,0,0,1,65.56,99.25,73.56,73.56,0,0,0,51,114.38q-3.49-5-6.7-10.18"/><path d="M43.88,102.68c-3.44,2.16-12.28,6.69-10.68,11.79.9,2.9,4.36,5.79,6.26,8.06,2.44,2.9,5.25,7.9,8.53,9.84,4.64,2.74,12.35-4,15.14-7.36a50.45,50.45,0,0,1,8.37-8.15,19.58,19.58,0,0,0,5.72-6.23,1.55,1.55,0,0,0-.54-2,41.47,41.47,0,0,1-9.82-10.09,1.54,1.54,0,0,0-2.36-.3,81,81,0,0,0-14.79,15.43H52.3c-2.33-3.34-4.56-6.72-6.71-10.18-1-1.63-3.61-.13-2.59,1.52q3.22,5.17,6.71,10.18a1.53,1.53,0,0,0,2.59,0,77.73,77.73,0,0,1,14.33-14.83l-2.36-.3a46,46,0,0,0,10.9,11.16l-.54-2.06c-2.22,4.12-6.38,6-9.7,9.08-3.78,3.48-5.93,8.14-11,10.23-1.43.59-3.69,1.34-5.2.5-1-.54-2.21-2.63-3-3.55L40.39,119c-2.3-2.74-5.43-4.76-2.61-8,2-2.34,5-4.08,7.62-5.72,1.63-1,.13-3.62-1.52-2.59Z"/><path class="cls-3" d="M47.64,177a48.71,48.71,0,0,0-9.12,7.11,3.61,3.61,0,0,0-1,1.48c-.33,1.16.5,2.3,1.27,3.23L50.68,203a3.64,3.64,0,0,0,2.4,1.64,3.69,3.69,0,0,0,1.7-.48c3.41-1.61,6.91-3.29,9.41-6.11,1.23-1.39,2.17-3,3.4-4.39,3.48-3.95,9.14-6,11.33-10.77a39.65,39.65,0,0,1-10.36-10.62A73.56,73.56,0,0,0,54,187.38q-3.49-5-6.7-10.18"/><path d="M46.88,175.68c-3.44,2.16-12.28,6.69-10.68,11.79.9,2.9,4.36,5.79,6.26,8.06,2.44,2.9,5.25,7.9,8.53,9.84,4.64,2.74,12.35-4,15.14-7.36a50.45,50.45,0,0,1,8.37-8.15,19.58,19.58,0,0,0,5.72-6.23,1.55,1.55,0,0,0-.54-2,41.47,41.47,0,0,1-9.82-10.09,1.54,1.54,0,0,0-2.36-.3,81,81,0,0,0-14.79,15.43H55.3c-2.33-3.34-4.56-6.72-6.71-10.18-1-1.63-3.61-.13-2.59,1.52q3.22,5.17,6.71,10.18a1.53,1.53,0,0,0,2.59,0,77.73,77.73,0,0,1,14.33-14.83l-2.36-.3a46,46,0,0,0,10.9,11.16l-.54-2.06c-2.22,4.12-6.38,6-9.7,9.08-3.78,3.48-5.93,8.14-11,10.23-1.43.59-3.69,1.34-5.2.5-1-.54-2.21-2.63-3-3.55L43.39,192c-2.3-2.74-5.43-4.76-2.61-8,2-2.34,5-4.08,7.62-5.72,1.63-1,.13-3.62-1.52-2.59Z"/><path class="cls-4" d="M136,48.88H70a5,5,0,0,1-5-5l2-35,24,2c-2-10,30-11,28,0l21-2,1,35A5,5,0,0,1,136,48.88Z"/><circle class="cls-5" cx="105.03" cy="22.88" r="6"/><path d="M88.13,73.32l41.76-.58,21.87-.3,9.94-.14,3,0c1.42.15,1.34-.08-.23-.7-.14,1.14.28,2.39-.11,3.51-1.52,4.45-15,2-19.11,1.75-6.32-.35-12.62-.81-18.93-1.18-12.81-.75-25.58-.95-38.33.67l2.59,1.48c-.62-1.39,9.43-1.12,10.38-1.09l8.88.22,18.76.48q18,.45,36,.9c3.4.08,4.06-5,.8-5.89L157,70.12c-3.73-1-5.32,4.78-1.6,5.79l8.38,2.27.8-5.89q-25.38-.6-50.77-1.28l-12.83-.32c-3.49-.09-7.47-.78-10.88,0-4.78,1.15-6.6,5.77-4.68,10.08A2.88,2.88,0,0,0,88,82.3c16-2,32.07-1.08,48.15,0,8.06.52,16.14,1,24.22,1.08,5.28,0,8.94-1.37,9.9-7,.65-3.83.77-9.15-3.91-10-3.9-.71-8.65.07-12.59.13l-11.92.16-53.69.75c-3.85.06-3.86,6.06,0,6Z"/><path class="cls-3" d="M44.64,66a48.71,48.71,0,0,0-9.12,7.11,3.61,3.61,0,0,0-1,1.48c-.33,1.16.5,2.3,1.27,3.23L47.68,92a3.64,3.64,0,0,0,2.4,1.64,3.69,3.69,0,0,0,1.7-.48c3.41-1.61,6.91-3.29,9.41-6.11,1.23-1.39,2.17-3,3.4-4.39,3.48-4,9.14-6,11.33-10.77A39.65,39.65,0,0,1,65.56,61.25,73.56,73.56,0,0,0,51,76.38q-3.49-5-6.7-10.18"/><path d="M43.88,64.68C40.44,66.84,31.6,71.37,33.2,76.47c.9,2.9,4.36,5.79,6.26,8.06,2.44,2.9,5.25,7.9,8.53,9.84,4.64,2.74,12.35-4,15.14-7.36a50.45,50.45,0,0,1,8.37-8.15,19.58,19.58,0,0,0,5.72-6.23,1.55,1.55,0,0,0-.54-2,41.47,41.47,0,0,1-9.82-10.09,1.54,1.54,0,0,0-2.36-.3A81,81,0,0,0,49.71,75.62H52.3C50,72.28,47.74,68.9,45.59,65.44,44.57,63.81,42,65.31,43,67q3.22,5.17,6.71,10.18a1.53,1.53,0,0,0,2.59,0A77.73,77.73,0,0,1,66.63,62.31L64.27,62a46,46,0,0,0,10.9,11.16l-.54-2.06c-2.22,4.12-6.38,6-9.7,9.08-3.78,3.48-5.93,8.14-11,10.23-1.43.59-3.69,1.34-5.2.5-1-.54-2.21-2.63-3-3.55L40.39,81c-2.3-2.74-5.43-4.76-2.61-8,2-2.34,5-4.08,7.62-5.72,1.63-1,.13-3.62-1.52-2.59Z"/></g></g></svg>