<svg xmlns="http://www.w3.org/2000/svg" viewBox="0 0 216.29 250.93"><defs><style>.cls-1{fill:#f4cd9d;}.cls-2{fill:red;}.cls-3{fill:#fff;}</style></defs><title>Asset 4</title><g id="Layer_2" data-name="Layer 2"><g id="Layer_9" data-name="Layer 9"><path class="cls-1" d="M135.42,99A52.83,52.83,0,1,0,82,99.61c-12.33,4.87-27.54,13.92-37.79,30.58-19.88,32.31,121.78,26.1,125.5,9.94C172.66,127.28,158.31,111.28,135.42,99Z"/><path class="cls-2" d="M98.61,245.77l-.71-1.32c-7.65-14.35-58.63-23.66-77.63-26l-2.19-.27V115.27h2.5C70,115.27,95.27,141,100,146.33h17.64c27.86-29.47,76-31,78.06-31.06l2.57-.07v102h-2.5c-42.46,0-62.29,11.13-79,27.85l-.74.73Z"/><path class="cls-3" d="M195.79,117.77v96.92c-44.74,0-64.62,12.43-80.77,28.58H100.11c-9.94-18.64-79.53-27.34-79.53-27.34V117.77c53.43,0,78.28,31.06,78.28,31.06h19.89c27.33-29.82,77-31.06,77-31.06m5-5.13-5.13.13c-2.08,0-50.4,1.59-79.07,31.06H101.11A88.48,88.48,0,0,0,82.34,129c-12.31-7.42-33-16.25-61.76-16.25h-5V220.35l4.38.54c.17,0,17.4,2.21,35.56,6.6,31.61,7.65,38.63,15.23,40.18,18.13l1.41,2.65h20l1.46-1.46c16.28-16.28,35.64-27.12,77.24-27.12h5v-107Z"/><rect class="cls-1" x="3.17" y="152.54" width="26.12" height="33.58" rx="7.5"/><path class="cls-3" d="M21.79,155.05a5,5,0,0,1,5,5v18.57a5,5,0,0,1-5,5H10.67a5,5,0,0,1-5-5V160.05a5,5,0,0,1,5-5H21.79m0-5H10.67a10,10,0,0,0-10,10v18.57a10,10,0,0,0,10,10H21.79a10,10,0,0,0,10-10V160.05a10,10,0,0,0-10-10Z"/><rect class="cls-1" x="187.07" y="152.54" width="26.12" height="33.58" rx="7.5"/><path class="cls-3" d="M205.7,155.05a5,5,0,0,1,5,5v18.57a5,5,0,0,1-5,5H194.57a5,5,0,0,1-5-5V160.05a5,5,0,0,1,5-5H205.7m0-5H194.57a10,10,0,0,0-10,10v18.57a10,10,0,0,0,10,10H205.7a10,10,0,0,0,10-10V160.05a10,10,0,0,0-10-10Z"/></g><g id="Layer_10" data-name="Layer 10"><path d="M78.54,13.71C92.33,9.74,108,5,122.49,6.08c7.68.56,13.94,4.2,19.76,9,5,4.13,10.65,8.59,13.74,14.43,3.35,6.33,3.18,13.73,3.09,20.69-.1,7.72,0,15.74-1.74,23.31-1.66,7.25-5.68,11.43-11.91,15.15-4.7,2.81-9.42,5.39-12.87,9.76-1.07,1.36-1.32,3.81.61,4.71a98.71,98.71,0,0,1,21.36,13.25c2.7,2.22,5.29,5.43,8.61,6.77,2.93,1.17,5.69.63,8.64-.16,4.48-1.19,8.68-2.45,13.36-2.8a31.57,31.57,0,0,1,5.5-.13c3.29.39,3.56,1.34,4.33,4.46a45.37,45.37,0,0,1-1.64,26.29c-1.31,3.64,4.49,5.21,5.78,1.59a51.23,51.23,0,0,0,2.36-26c-.54-3.21-1.14-8-3.67-10.4s-6.81-2-9.92-1.93A59.05,59.05,0,0,0,174.4,116c-2.63.69-5,1.88-7.76,1.48-3.07-.45-4.87-2.79-7.21-4.75A103.23,103.23,0,0,0,136.2,97.94l.61,4.71c4.49-5.7,11.41-8,17-12.38,5.46-4.22,8.34-10,9.62-16.75,1.57-8.2,1.59-16.7,1.65-25,.05-7.52-.28-15.25-3.93-22-3.51-6.53-9.64-11.57-15.31-16.17S134.1,1.87,126.81.6c-7.66-1.33-15.45-.21-23,1.1A251.37,251.37,0,0,0,77,7.92c-3.71,1.07-2.13,6.86,1.59,5.79Z"/><path d="M195.13,149.59c-9.42,3.8-13.47,15.91-11.11,25.46,2.5,10.1,14.71,16.41,24.37,15.84,4.45-.26,6.83-2.36,7.4-6.76.88-6.84.47-14.47-.26-21.31-.49-4.5-.93-9.64-4.83-12.58-4.56-3.43-10.25-1.79-15,.23-3.5,1.47-2,7.28,1.59,5.78s9.45-3.95,11.32,1.17c1.12,3,1.12,6.74,1.29,10s.18,6.72.12,10.09c0,1.54.24,4-.14,5.5-.55,2.14-.68,1.84-3,2-6,.32-13.5-4-16.31-9.47-3-5.94-.26-17.49,6.19-20.08,3.53-1.42,2-7.23-1.6-5.79Z"/><path d="M192.62,192.28l1.51,11.93c.44,3.46,1.59,7.71,1.14,11.17l1.48-2.59c-.32.18-4.23-.26-5.33-.3-2.46-.09-4.93-.15-7.39-.16-4.92,0-9.84.15-14.74.61a97.53,97.53,0,0,0-25.6,5.55c-14.08,5.35-26.57,14.62-33.93,28l3.38-1.38c-8.57-1.7-14.09-6-20.4-11.71-5.49-5-11.82-7.9-18.91-9.94-16.88-4.87-34.51-7.54-52-8.89-3.85-.3-3.83,5.7,0,6,17.44,1.34,35.2,4,52,9.13a42.92,42.92,0,0,1,10.2,4.4c3.56,2.24,6.25,5.44,9.43,8.13a39.86,39.86,0,0,0,18.15,8.67,3.12,3.12,0,0,0,3.39-1.38c10.36-18.79,31.09-27.83,51.6-30.25a143.34,143.34,0,0,1,16.56-.9c2.78,0,5.55.06,8.32.16,2.1.07,5,.73,7.06.12,3.71-1.11,2.84-5,2.46-8l-2.32-18.35c-.48-3.78-6.48-3.83-6,0Z"/><path d="M15.21,189.32a134.62,134.62,0,0,0,6.1,28.34c1.22,3.65,7,2.08,5.79-1.59a127,127,0,0,1-5.89-26.75c-.41-3.8-6.41-3.84-6,0Z"/><path d="M16.31,192.32c5.75-.84,11.72-2.63,15.37-7.49s3.82-11.1,3.23-16.9c-.57-5.61-1.15-12.07-5.07-16.47s-10-5-15.47-4.39c-13.31,1.57-16.32,15-13.29,26.36C3.17,181.24,14.61,198.1,22.77,186c2.16-3.22-3-6.23-5.18-3-3.16,4.71-8.67-5.62-9.49-7.53A25.69,25.69,0,0,1,6,163.55c.24-3.71,1.31-7.56,4.84-9.4,3-1.58,7.71-1.72,10.93-.79,7.06,2.07,7.42,12.94,7.39,19.07,0,9.31-6,12.86-14.47,14.11-3.81.55-2.19,6.33,1.59,5.78Z"/><path d="M23.69,150.86,22.32,135c-.19-2.17-2.49-14-.9-15.13,1.07-.77,5.6.43,6.94.57l7.54.75c5.36.54,10.76,1,16.09,1.84,9.88,1.63,19.24,5.16,28.24,9.47,4.64,2.23,9.22,4.62,13.76,7,3.63,1.94,8.87,4.4,9.23,9.06a3.06,3.06,0,0,0,3,3c4.59,0,10.49,1,14.81-.75a7.61,7.61,0,0,0,3.92-3.62c1.67-3,2.64-5.17,5.69-7.2,10.34-6.86,23.19-11.38,34.65-16,3.53-1.42,2-7.23-1.6-5.79-10.86,4.37-21.65,9-32.08,14.36-3.76,1.91-7.63,4.19-10,7.82-2.1,3.24-2.12,4.69-6.55,5.09-2.91.26-5.94.05-8.86.07l3,3c-.8-10.5-13-14.79-21.07-18.87C76.63,123.92,64.7,118.92,51.85,117c-6.23-.93-12.52-1.44-18.78-2.07-4.26-.43-12.14-2.93-15.85,0s-1.83,9.32-1.5,13.15l2,22.77c.33,3.82,6.33,3.86,6,0Z"/><path d="M78.4,99.35a45,45,0,0,0-25.3,15.26c-2.46,2.94,1.77,7.21,4.24,4.24A39.86,39.86,0,0,1,80,105.14c3.78-.81,2.18-6.6-1.59-5.79Z"/><path d="M85.05,97.68c-15-9.32-26.68-25.25-27.53-43.3-.79-17,8.45-33.78,24-41,3.5-1.61.45-6.78-3-5.18-17.39,8-27.86,27.24-27,46.15.92,20.21,13.71,38,30.51,48.48,3.28,2,6.3-3.14,3-5.18Z"/></g></g></svg>